<svg width="1675" height="300" viewBox="0 0 1675 300" fill="none" xmlns="http://www.w3.org/2000/svg">
<path d="M976.203 85.7144V128.572H1100.18V171.429H976.203V214.286H1132.33V257.143H944.06C935.607 257.143 928.754 250.29 928.754 241.837V58.1634C928.754 49.7101 935.607 42.8573 944.06 42.8573H1132.33L1112.43 85.7144H976.203Z" fill="#4C12A1"/>
<path d="M1213.45 85.7144V214.286H1332.84V171.429H1251.72L1271.62 128.572H1380.29V241.837C1380.29 250.29 1373.44 257.143 1364.98 257.143H1181.31C1172.86 257.143 1166 250.29 1166 241.837V58.1634C1166 49.7101 1172.86 42.8573 1181.31 42.8573H1380.29L1360.39 85.7144H1213.45Z" fill="#4C12A1"/>
<path d="M1580.87 56.1115C1577.1 48.0259 1568.98 42.8573 1560.06 42.8573H1519.36C1510.44 42.8573 1502.33 48.0259 1498.55 56.1114L1404.79 257.143H1442.35C1448.29 257.143 1453.69 253.705 1456.21 248.323L1472.13 214.286H1607.29L1623.21 248.323C1625.73 253.705 1631.13 257.143 1637.08 257.143H1674.63L1580.87 56.1115ZM1492.19 171.429L1532.13 85.7144H1547.44L1587.39 171.429H1492.19Z" fill="#4C12A1"/>
<path d="M869.139 42.8571C877.546 42.8571 884.36 49.7098 884.36 58.1632V257.143H837.149V108.061L772.167 248.305C769.667 253.696 764.287 257.143 758.371 257.143H735.146C729.23 257.143 723.85 253.696 721.35 248.305L656.343 108.061V257.143H609.156V58.1632C609.156 49.7099 615.971 42.8571 624.378 42.8571H663.393C669.307 42.8571 674.685 46.3012 677.186 51.6897L746.758 201.581L816.331 51.6897C818.832 46.3012 824.21 42.8571 830.124 42.8571H869.139Z" fill="#4C12A1"/>
<path d="M384.903 69.2589C387.25 70.6276 389.198 72.5878 390.552 74.9442C391.905 77.3005 392.617 79.9706 392.617 82.6881V218.243C392.616 220.978 391.896 223.664 390.527 226.031C389.158 228.399 387.19 230.364 384.821 231.729L269.768 297.925C267.409 299.283 264.734 299.997 262.013 299.997C259.291 299.997 256.617 299.283 254.258 297.925L220.886 279.278L277.199 246.189C282.027 243.41 285.001 237.01 285.001 231.446V69.5733C285.001 64.0407 282.059 57.6656 277.274 54.8742L220.641 21.1504L254.207 2.1195C256.586 0.731426 259.29 0 262.044 0C264.798 0 267.502 0.731426 269.881 2.1195L384.903 69.2589Z" fill="#2DC84D"/>
<path d="M515.717 69.2589C518.065 70.6276 520.012 72.5878 521.366 74.9442C522.72 77.3005 523.432 79.9706 523.431 82.6881V218.243C523.431 220.978 522.71 223.664 521.341 226.031C519.973 228.399 518.005 230.364 515.635 231.729L400.582 297.925C398.223 299.283 395.549 299.997 392.827 299.997C390.105 299.997 387.431 299.283 385.072 297.925L351.7 279.278L408.013 246.189C412.842 243.41 415.816 237.01 415.816 231.446V69.5733C415.816 64.0407 412.873 57.6656 408.089 54.8742L351.455 21.1504L385.022 2.1195C387.4 0.731426 390.105 0 392.859 0C395.612 0 398.317 0.731426 400.695 2.1195L515.717 69.2589Z" fill="#C5CFDA"/>
<path fill-rule="evenodd" clip-rule="evenodd" d="M261.79 218.543C261.789 221.278 261.068 223.964 259.7 226.331C258.331 228.699 256.363 230.664 253.994 232.029L139.374 297.93C137.015 299.286 134.341 300 131.619 300C128.898 300 126.224 299.286 123.864 297.93L8.76079 231.721C6.39098 230.358 4.42246 228.394 3.05375 226.027C1.68503 223.661 0.96451 220.975 0.964845 218.241V82.6925C0.96393 79.9741 1.67577 77.3029 3.02934 74.9455C4.38291 72.588 6.33091 70.6267 8.67906 69.257L123.783 2.11759C126.161 0.730768 128.866 4.57764e-05 131.619 4.57764e-05C134.373 4.57764e-05 137.077 0.730768 139.456 2.11759L254.082 69.0307C256.428 70.4006 258.374 72.3613 259.726 74.7175C261.079 77.0737 261.79 79.7431 261.79 82.4598V218.543Z" fill="#4C12A1"/>
</svg>
